<svg id="Laag_1" xmlns="http://www.w3.org/2000/svg" version="1.1" viewBox="0 0 1015.13 425.2"><!-- Generator: Adobe Illustrator 30.3.0, SVG Export Plug-In . SVG Version: 2.1.3 Build 182)  --><defs><style>
    .st0 {
    fill: #1d1d1b;
    }
</style></defs><g><path class="st0" d="M359.3,417.19l-102.2-205.7L359.2,5.92c.63-1.27.56-2.76-.18-3.97s-2.07-1.94-3.47-1.94h-8.06c-1.55,0-2.96.88-3.66,2.27l-95.33,191.91-25.73-51.79L290.56,5.92c.63-1.27.56-2.76-.18-3.97s-2.07-1.94-3.47-1.94h-8.15c-1.55,0-2.96.88-3.66,2.27l-60.93,122.8-25.74-51.8L221.88,5.92c.63-1.27.56-2.76-.18-3.97-.74-1.21-2.07-1.94-3.47-1.94h-8.09c-1.55,0-2.96.88-3.66,2.27l-34.35,69.19c-.57,1.15-.53,2.48,0,3.64l171.75,345.7c.69,1.39,2.1,2.27,3.66,2.27h8.09l.02.02c1.42,0,2.73-.73,3.47-1.94s.81-2.71.18-3.97Z"></path><path class="st0" d="M149.14,132.47c-.69-1.39-2.1-2.27-3.66-2.27s-2.96.88-3.66,2.27l-4.04,8.14c-.56,1.14-.56,2.48,0,3.62l137.37,276.58c.69,1.39,2.1,2.27,3.66,2.27h8.09v.03c1.42,0,2.73-.73,3.47-1.94.74-1.21.81-2.71.18-3.97L149.14,132.47Z"></path><path class="st0" d="M114.82,201.61c-.69-1.39-2.1-2.27-3.66-2.27s-2.96.88-3.66,2.27L.43,417.17c-.63,1.27-.56,2.76.18,3.97.74,1.21,2.07,1.94,3.47,1.94h8.07c1.55,0,2.96-.88,3.66-2.27l95.41-192.05,25.71,51.83-67.85,136.59c-.63,1.27-.56,2.76.18,3.97s2.07,1.94,3.47,1.94h8.1c1.55,0,2.96-.88,3.66-2.27l61.03-122.89,25.7,51.8-33.47,67.45c-.63,1.27-.56,2.76.18,3.97.74,1.21,2.07,1.94,3.47,1.94h8.04v-.02c1.55,0,2.96-.88,3.66-2.27l26.71-53.76,26.68,53.77c.69,1.39,2.1,2.27,3.66,2.27h8.09v.02c1.42,0,2.73-.73,3.47-1.94.74-1.21.81-2.71.18-3.97l-107.08-215.58Z"></path></g><path class="st0" d="M440.2,109.89c33.01,0,47.04-14.37,47.04-47.04s-13.84-48.64-47.04-48.64h-23.26v95.68h23.26ZM402.39,119.65V4.43c0-2.48,1.95-4.43,4.43-4.43h33.38c42.61,0,61.6,21.65,61.6,62.84s-19.35,61.25-61.6,61.25h-33.38c-2.48,0-4.43-1.95-4.43-4.43"></path><path class="st0" d="M574.83,70.11c-1.95-16.87-11.36-22.54-23.97-22.54-13.66,0-21.49,9.23-23.78,22.54h47.75ZM589.92,79.34v.53c0,2.48-1.95,4.43-4.43,4.43h-58.93c1.24,17.57,10.47,27.69,27.16,27.69,8.88,0,16.51-4.09,20.06-14.56.53-1.6,2.3-3.01,4.27-3.01h6.04c2.84,0,5.14,2.66,4.27,5.67-4.61,15.61-17.93,26.1-34.62,26.1-27.52,0-41.9-18.99-41.9-46.51,0-1.6,0-3.19.18-4.96v-.18c0-.35,0-.53.18-.89,1.95-22.01,15.08-40.29,38.7-40.29,20.59,0,39.05,10.47,39.05,45.62v.35l-.03.02Z"></path><path class="st0" d="M603.07,92.84h5.67c2.3,0,4.09,1.6,4.43,3.9,1.42,11.36,12.24,15.08,24.5,15.08,13.13,0,20.41-6.22,20.41-13.31,0-5.67-2.48-8.52-11-10.65l-22.73-5.67c-11.89-3.01-22.36-10.65-22.36-22.91,0-21.12,20.06-26.1,34.09-26.1s30.88,4.27,34.62,25.03c.35,2.48-1.77,5.14-4.43,5.14h-5.67c-2.13,0-4.09-1.42-4.43-3.72-1.42-9.23-10.47-12.26-20.06-12.26-10.3,0-19.53,2.66-19.53,10.47,0,5.14,2.48,7.81,11.55,10.3l22.91,6.04c13.5,3.56,22.01,11.54,21.65,24.5-.71,17.04-14.92,27.51-34.97,27.51s-36.75-7.46-39.05-28.4c-.18-2.32,1.6-4.98,4.43-4.98"></path><path class="st0" d="M696.75,124.08h-5.67c-2.48,0-4.43-1.95-4.43-4.43V39.76c0-2.48,1.95-4.43,4.43-4.43h5.67c2.48,0,4.43,1.95,4.43,4.43v79.89c0,2.48-1.95,4.43-4.43,4.43M698.87,23.6h-9.94c-2.48,0-4.43-1.95-4.43-4.43V6.75c0-2.48,1.95-4.43,4.43-4.43h9.94c2.48,0,4.43,1.95,4.43,4.43v12.42c0,2.48-1.95,4.43-4.43,4.43"></path><path class="st0" d="M754.33,110.06c14.9,0,24.5-11.54,24.5-31.59s-9.59-31.59-24.5-31.59c-15.98,0-24.31,11.54-24.31,31.59s8.34,31.59,24.31,31.59M783.27,35.33h5.67c2.48,0,4.43,1.95,4.43,4.43v78.47c0,21.3-8.52,43.14-37.1,43.14-21.65,0-35.68-9.05-37.81-27.34-.18-2.32,1.6-4.98,4.43-4.98h5.67c2.3,0,4.09,1.6,4.43,3.9,1.42,10.65,10.65,14.21,23.26,14.21,20.23,0,22.54-15.27,22.54-28.93v-6.57c-5.86,8.17-14.21,12.6-24.5,12.6-25.21,0-38.89-18.28-38.89-45.8s13.5-45.8,38.89-45.8c10.47,0,18.82,4.27,24.5,12.07v-4.98c0-2.48,1.95-4.43,4.43-4.43"></path><path class="st0" d="M821.2,124.08h-5.67c-2.48,0-4.43-1.95-4.43-4.43V39.76c0-2.48,1.95-4.43,4.43-4.43.35,0,.71,0,1.24.18.36-.18.71-.18,1.06-.18h3.37c2.48,0,4.43,1.95,4.43,4.43v8.17c6.57-9.05,16.51-14.56,28.76-14.56,16.16,0,31.24,7.99,31.24,30.35v55.92c0,2.48-1.95,4.43-4.43,4.43h-5.67c-2.48,0-4.43-1.95-4.43-4.43v-55.39c0-11.89-6.22-16.69-18.11-16.69-15.8,0-25.74,9.41-27.16,25.74-.18,1.42-.18,2.66-.18,4.09v42.24c0,2.48-1.95,4.43-4.43,4.43"></path><path class="st0" d="M412.69,273.57h-5.86c-2.48,0-4.43-1.95-4.43-4.43v-115.22c0-2.48,1.95-4.43,4.43-4.43h11.71c1.6,0,2.84.71,3.72,2.13l40.47,64.08,40.47-64.26c.89-1.42,2.13-2.13,3.72-2.13h11.71c2.48,0,4.43,1.95,4.43,4.43v115.38c0,2.48-1.95,4.43-4.43,4.43h-5.67c-2.48,0-4.43-1.95-4.43-4.43v-100.12l-38.16,60.72c-.53.89-1.06,1.42-2.13,1.77-.53.35-1.42.71-2.3.71h-6.75c-1.6,0-2.84-.71-3.72-1.95,0,0-.18-.18-.35-.53l-38.16-60.54.18,99.94c0,2.3-1.95,4.43-4.43,4.43"></path><path class="st0" d="M607.78,184.82h5.67c2.48,0,4.43,1.95,4.43,4.43v79.89c0,2.48-1.95,4.43-4.43,4.43-.35,0-.71,0-1.06-.18-.53.18-.89.18-1.24.18h-3.37c-2.48,0-4.43-1.95-4.43-4.43v-8.17c-6.57,9.05-16.51,14.56-28.76,14.56-16.16,0-31.24-7.99-31.24-30.35v-55.92c0-2.48,1.95-4.43,4.43-4.43h5.67c2.48,0,4.43,1.95,4.43,4.43v55.39c0,11.89,6.22,16.69,18.11,16.69,15.8,0,25.74-9.41,27.16-25.74.18-1.42.18-2.66.18-4.09v-42.24c0-2.48,1.95-4.43,4.43-4.43"></path><path class="st0" d="M634.76,242.33h5.67c2.3,0,4.09,1.6,4.43,3.9,1.42,11.36,12.24,15.08,24.5,15.08,13.13,0,20.41-6.22,20.41-13.31,0-5.67-2.48-8.52-11-10.65l-22.73-5.69c-11.89-3.01-22.36-10.65-22.36-22.89,0-21.12,20.06-26.1,34.09-26.1s30.88,4.27,34.62,25.03c.35,2.48-1.77,5.14-4.43,5.14h-5.67c-2.13,0-4.09-1.42-4.43-3.72-1.42-9.23-10.47-12.26-20.06-12.26-10.3,0-19.53,2.66-19.53,10.47,0,5.14,2.48,7.81,11.55,10.29l22.91,6.04c13.5,3.56,22.01,11.54,21.65,24.5-.71,17.04-14.92,27.52-34.97,27.52s-36.75-7.46-39.05-28.4c-.18-2.3,1.6-4.96,4.43-4.96"></path><path class="st0" d="M776.26,219.6c-1.95-16.87-11.36-22.54-23.97-22.54-13.66,0-21.49,9.23-23.78,22.54h47.75ZM791.34,228.83v.53c0,2.48-1.95,4.43-4.43,4.43h-58.93c1.24,17.57,10.47,27.69,27.16,27.69,8.88,0,16.51-4.09,20.06-14.56.53-1.6,2.3-3.01,4.27-3.01h6.04c2.84,0,5.14,2.66,4.27,5.67-4.61,15.61-17.93,26.1-34.62,26.1-27.52,0-41.9-18.99-41.9-46.51,0-1.6,0-3.19.18-4.96v-.18c0-.35,0-.53.18-.89,1.95-22.01,15.08-40.29,38.7-40.29,20.59,0,39.05,10.47,39.05,45.62v.35l-.03.02Z"></path><path class="st0" d="M868.75,184.82h5.67c2.48,0,4.43,1.95,4.43,4.43v79.89c0,2.48-1.95,4.43-4.43,4.43-.36,0-.71,0-1.06-.18-.53.18-.89.18-1.24.18h-3.37c-2.48,0-4.43-1.95-4.43-4.43v-8.17c-6.57,9.05-16.51,14.56-28.76,14.56-16.16,0-31.24-7.99-31.24-30.35v-55.92c0-2.48,1.95-4.43,4.43-4.43h5.67c2.48,0,4.43,1.95,4.43,4.43v55.39c0,11.89,6.22,16.69,18.11,16.69,15.8,0,25.74-9.41,27.16-25.74.18-1.42.18-2.66.18-4.09v-42.24c0-2.48,1.95-4.43,4.43-4.43"></path><path class="st0" d="M906.68,273.57h-5.67c-2.48,0-4.43-1.95-4.43-4.43v-79.89c0-2.48,1.95-4.43,4.43-4.43h5.67c2.48,0,4.43,1.95,4.43,4.43v6.93c5.67-8.17,13.84-13.13,24.15-13.13,12.07,0,20.77,5.67,25.03,15.08,5.51-10.12,14.37-15.08,26.45-15.08,18.11,0,28.4,10.29,28.4,30.88v55.21c0,2.48-1.95,4.43-4.43,4.43h-5.67c-2.48,0-4.43-1.95-4.43-4.43v-56.1c0-12.79-6.22-15.8-15.45-15.8-12.6,0-21.65,7.81-21.83,28.05v1.95l-.36,41.9c0,2.48-1.95,4.43-4.43,4.43h-5.33c-2.48,0-4.43-2.13-4.43-4.43l.36-53.97c0-13.5-5.67-17.75-15.27-17.75-12.42,0-22.01,10.29-22.73,28.93v42.79c0,2.48-1.95,4.43-4.43,4.43"></path><path class="st0" d="M507.07,364.48h.18c0,30.71-13.31,60.88-53.26,60.72-36.92-.18-55.92-28.23-55.92-64.26,0-34.09,19.53-64.08,58.22-64.08,19.17,0,41.37,8.34,47.75,34.62h-.18c.18.53.18.71.18,1.06,0,2.48-1.95,4.43-4.43,4.43h-5.86c-2.13,0-3.72-1.42-4.27-3.37-4.43-16.51-18.99-22.54-33.2-22.54-28.76,0-43.67,21.65-43.67,49.88s13.5,50.07,42.43,50.07c25.55,0,35.33-16.69,37.28-36.75h-36.75c-2.48,0-4.43-1.95-4.43-4.43v-5.33c0-2.48,1.95-4.43,4.43-4.43h47.04c2.48,0,4.43,1.95,4.43,4.43"></path><path class="st0" d="M582.28,369.09c-1.95-16.87-11.36-22.54-23.97-22.54-13.66,0-21.49,9.23-23.78,22.54h47.75ZM597.38,378.32v.53c0,2.48-1.95,4.43-4.43,4.43h-58.93c1.24,17.58,10.47,27.69,27.16,27.69,8.88,0,16.51-4.09,20.06-14.56.53-1.6,2.3-3.01,4.27-3.01h6.04c2.84,0,5.14,2.66,4.27,5.67-4.61,15.63-17.93,26.1-34.62,26.1-27.52,0-41.9-18.99-41.9-46.51,0-1.6,0-3.19.18-4.98v-.18c0-.36,0-.53.18-.89,1.95-22.01,15.08-40.29,38.7-40.29,20.59,0,39.05,10.47,39.05,45.62v.36l-.03.02Z"></path><path class="st0" d="M620.75,423.06h-5.67c-2.48,0-4.43-1.95-4.43-4.43v-79.89c0-2.48,1.95-4.43,4.43-4.43.35,0,.71,0,1.24.18.36-.18.71-.18,1.06-.18h3.37c2.48,0,4.43,1.95,4.43,4.43v8.17c6.57-9.05,16.51-14.56,28.76-14.56,16.16,0,31.24,7.99,31.24,30.35v55.92c0,2.48-1.95,4.43-4.43,4.43h-5.67c-2.48,0-4.43-1.95-4.43-4.43v-55.39c0-11.89-6.22-16.69-18.11-16.69-15.8,0-25.74,9.41-27.16,25.74-.18,1.42-.18,2.66-.18,4.09v42.24c0,2.48-1.95,4.43-4.43,4.43"></path><path class="st0" d="M740.17,413.3v5.33c0,2.48-1.95,4.43-4.43,4.43h-8.52c-14.37,0-19.7-9.94-19.7-20.59v-54.68h-10.12c-2.48,0-4.43-1.95-4.43-4.43v-4.61c0-2.48,1.95-4.43,4.43-4.43h10.12v-22.01c0-2.48,1.95-4.43,4.43-4.43h5.67c2.48,0,4.43,1.95,4.43,4.43v22.01h13.66c2.48,0,4.43,1.95,4.43,4.43v4.61c0,2.48-1.95,4.43-4.43,4.43h-13.66v54.68c0,3.9,1.42,6.38,5.14,6.38h8.52c2.48,0,4.43,1.95,4.43,4.43"></path></svg>